<svg xmlns="http://www.w3.org/2000/svg" viewBox="0 0 64 64" width="64" height="64">
  <defs>
    <linearGradient id="dirt" x1="0" y1="0" x2="1" y2="1">
      <stop offset="0" stop-color="#a06a2c"/>
      <stop offset="1" stop-color="#7a4a1d"/>
    </linearGradient>
    <linearGradient id="grass" x1="0" y1="0" x2="0" y2="1">
      <stop offset="0" stop-color="#5cb23c"/>
      <stop offset="1" stop-color="#3c8a24"/>
    </linearGradient>
  </defs>
  <rect width="64" height="64" rx="14" fill="#12151b"/>
  <g transform="translate(14 14)">
    <polygon points="18,0 36,10 18,20 0,10" fill="#3c8a24"/>
    <polygon points="18,0 36,10 36,30 18,40 0,30 0,10" fill="url(#grass)"/>
    <polygon points="18,20 36,10 36,30 18,40" fill="url(#dirt)" opacity="0.45"/>
    <polygon points="0,30 18,20 18,40 0,30" fill="#8a5a24"/>
    <polygon points="36,10 36,30 18,20" fill="#6a4a1d"/>
    <line x1="18" y1="0" x2="18" y2="40" stroke="#1c2c14" stroke-width="1" opacity="0.6"/>
    <line x1="0" y1="10" x2="36" y2="10" stroke="#1c2c14" stroke-width="1" opacity="0.5"/>
    <line x1="0" y1="30" x2="36" y2="30" stroke="#1c2c14" stroke-width="1" opacity="0.5"/>
  </g>
</svg>
